<mxfile host="Electron" agent="Mozilla/5.0 (X11; Linux x86_64) AppleWebKit/537.36 (KHTML, like Gecko) draw.io/24.7.17 Chrome/128.0.6613.36 Electron/32.0.1 Safari/537.36" version="24.7.17">
  <diagram name="Page-1" id="-CErSVUspCgh4k0uHHSo">
    <mxGraphModel dx="1154" dy="685" grid="1" gridSize="10" guides="1" tooltips="1" connect="1" arrows="1" fold="1" page="1" pageScale="1" pageWidth="850" pageHeight="1100" math="1" shadow="0">
      <root>
        <mxCell id="0" />
        <mxCell id="1" parent="0" />
        <mxCell id="6nfeoU8okWl31p89dZ1C-1" value="" style="verticalLabelPosition=bottom;shadow=0;dashed=0;align=center;html=1;verticalAlign=top;shape=mxgraph.electrical.transistors.nmos;pointerEvents=1;strokeWidth=2;" vertex="1" parent="1">
          <mxGeometry x="300" y="350" width="60" height="100" as="geometry" />
        </mxCell>
        <mxCell id="6nfeoU8okWl31p89dZ1C-2" value="" style="verticalLabelPosition=bottom;shadow=0;dashed=0;align=center;html=1;verticalAlign=top;shape=mxgraph.electrical.transistors.nmos;pointerEvents=1;flipH=1;strokeWidth=2;" vertex="1" parent="1">
          <mxGeometry x="200" y="350" width="60" height="100" as="geometry" />
        </mxCell>
        <mxCell id="6nfeoU8okWl31p89dZ1C-3" value="" style="endArrow=none;html=1;rounded=0;entryX=0;entryY=0.5;entryDx=0;entryDy=0;entryPerimeter=0;strokeWidth=2;" edge="1" parent="1" target="6nfeoU8okWl31p89dZ1C-1">
          <mxGeometry width="50" height="50" relative="1" as="geometry">
            <mxPoint x="250" y="400" as="sourcePoint" />
            <mxPoint x="300" y="350" as="targetPoint" />
          </mxGeometry>
        </mxCell>
        <mxCell id="6nfeoU8okWl31p89dZ1C-4" value="" style="endArrow=none;html=1;rounded=0;exitDx=0;exitDy=0;exitPerimeter=0;strokeWidth=2;" edge="1" parent="1" source="6nfeoU8okWl31p89dZ1C-19">
          <mxGeometry width="50" height="50" relative="1" as="geometry">
            <mxPoint x="200" y="350" as="sourcePoint" />
            <mxPoint x="200" y="310" as="targetPoint" />
          </mxGeometry>
        </mxCell>
        <mxCell id="6nfeoU8okWl31p89dZ1C-6" value="" style="pointerEvents=1;verticalLabelPosition=bottom;shadow=0;dashed=0;align=center;html=1;verticalAlign=top;shape=mxgraph.electrical.signal_sources.source;aspect=fixed;points=[[0.5,0,0],[1,0.5,0],[0.5,1,0],[0,0.5,0]];elSignalType=dc2;strokeWidth=2;" vertex="1" parent="1">
          <mxGeometry x="180" y="270" width="40" height="40" as="geometry" />
        </mxCell>
        <mxCell id="6nfeoU8okWl31p89dZ1C-7" value="" style="endArrow=none;html=1;rounded=0;strokeWidth=2;" edge="1" parent="1">
          <mxGeometry width="50" height="50" relative="1" as="geometry">
            <mxPoint x="200" y="270" as="sourcePoint" />
            <mxPoint x="200" y="210" as="targetPoint" />
          </mxGeometry>
        </mxCell>
        <mxCell id="6nfeoU8okWl31p89dZ1C-8" value="" style="endArrow=none;html=1;rounded=0;strokeWidth=2;" edge="1" parent="1">
          <mxGeometry width="50" height="50" relative="1" as="geometry">
            <mxPoint x="200" y="350" as="sourcePoint" />
            <mxPoint x="280" y="350" as="targetPoint" />
          </mxGeometry>
        </mxCell>
        <mxCell id="6nfeoU8okWl31p89dZ1C-9" value="" style="endArrow=none;html=1;rounded=0;strokeWidth=2;" edge="1" parent="1">
          <mxGeometry width="50" height="50" relative="1" as="geometry">
            <mxPoint x="280" y="400" as="sourcePoint" />
            <mxPoint x="280" y="350" as="targetPoint" />
          </mxGeometry>
        </mxCell>
        <mxCell id="6nfeoU8okWl31p89dZ1C-10" value="" style="endArrow=none;html=1;rounded=0;strokeWidth=2;" edge="1" parent="1">
          <mxGeometry width="50" height="50" relative="1" as="geometry">
            <mxPoint x="360" y="353" as="sourcePoint" />
            <mxPoint x="360" y="293" as="targetPoint" />
          </mxGeometry>
        </mxCell>
        <mxCell id="6nfeoU8okWl31p89dZ1C-11" value="" style="endArrow=none;html=1;rounded=0;strokeWidth=3;" edge="1" parent="1">
          <mxGeometry width="50" height="50" relative="1" as="geometry">
            <mxPoint x="190" y="450" as="sourcePoint" />
            <mxPoint x="450" y="450" as="targetPoint" />
          </mxGeometry>
        </mxCell>
        <mxCell id="6nfeoU8okWl31p89dZ1C-12" value="" style="endArrow=none;html=1;rounded=0;strokeWidth=2;" edge="1" parent="1">
          <mxGeometry width="50" height="50" relative="1" as="geometry">
            <mxPoint x="360" y="450" as="sourcePoint" />
            <mxPoint x="360" y="430" as="targetPoint" />
          </mxGeometry>
        </mxCell>
        <mxCell id="6nfeoU8okWl31p89dZ1C-13" value="" style="endArrow=none;html=1;rounded=0;strokeWidth=2;" edge="1" parent="1">
          <mxGeometry width="50" height="50" relative="1" as="geometry">
            <mxPoint x="200" y="450" as="sourcePoint" />
            <mxPoint x="200" y="430" as="targetPoint" />
          </mxGeometry>
        </mxCell>
        <mxCell id="6nfeoU8okWl31p89dZ1C-14" value="" style="endArrow=none;html=1;rounded=0;strokeWidth=2;" edge="1" parent="1">
          <mxGeometry width="50" height="50" relative="1" as="geometry">
            <mxPoint x="330" y="400" as="sourcePoint" />
            <mxPoint x="420" y="400" as="targetPoint" />
          </mxGeometry>
        </mxCell>
        <mxCell id="6nfeoU8okWl31p89dZ1C-15" value="" style="pointerEvents=1;verticalLabelPosition=bottom;shadow=0;dashed=0;align=center;html=1;verticalAlign=top;shape=mxgraph.electrical.signal_sources.source;aspect=fixed;points=[[0.5,0,0],[1,0.5,0],[0.5,1,0],[0,0.5,0]];elSignalType=dc2;strokeWidth=2;" vertex="1" parent="1">
          <mxGeometry x="405" y="410" width="30" height="30" as="geometry" />
        </mxCell>
        <mxCell id="6nfeoU8okWl31p89dZ1C-16" value="" style="endArrow=none;html=1;rounded=0;strokeWidth=2;" edge="1" parent="1">
          <mxGeometry width="50" height="50" relative="1" as="geometry">
            <mxPoint x="420" y="450" as="sourcePoint" />
            <mxPoint x="420" y="440" as="targetPoint" />
          </mxGeometry>
        </mxCell>
        <mxCell id="6nfeoU8okWl31p89dZ1C-17" value="" style="endArrow=none;html=1;rounded=0;strokeWidth=2;" edge="1" parent="1">
          <mxGeometry width="50" height="50" relative="1" as="geometry">
            <mxPoint x="419.89" y="410" as="sourcePoint" />
            <mxPoint x="419.89" y="400" as="targetPoint" />
          </mxGeometry>
        </mxCell>
        <mxCell id="6nfeoU8okWl31p89dZ1C-18" value="" style="shape=waypoint;sketch=0;fillStyle=solid;size=6;pointerEvents=1;points=[];fillColor=none;resizable=0;rotatable=0;perimeter=centerPerimeter;snapToPoint=1;strokeWidth=2;" vertex="1" parent="1">
          <mxGeometry x="270" y="390" width="20" height="20" as="geometry" />
        </mxCell>
        <mxCell id="6nfeoU8okWl31p89dZ1C-20" value="" style="endArrow=none;html=1;rounded=0;exitX=0.999;exitY=0.016;exitDx=0;exitDy=0;exitPerimeter=0;strokeWidth=2;" edge="1" parent="1" source="6nfeoU8okWl31p89dZ1C-2" target="6nfeoU8okWl31p89dZ1C-19">
          <mxGeometry width="50" height="50" relative="1" as="geometry">
            <mxPoint x="200" y="354" as="sourcePoint" />
            <mxPoint x="200" y="310" as="targetPoint" />
          </mxGeometry>
        </mxCell>
        <mxCell id="6nfeoU8okWl31p89dZ1C-19" value="" style="shape=waypoint;sketch=0;fillStyle=solid;size=6;pointerEvents=1;points=[];fillColor=none;resizable=0;rotatable=0;perimeter=centerPerimeter;snapToPoint=1;strokeWidth=2;" vertex="1" parent="1">
          <mxGeometry x="190" y="340" width="20" height="20" as="geometry" />
        </mxCell>
        <mxCell id="6nfeoU8okWl31p89dZ1C-21" value="&lt;font style=&quot;font-size: 18px;&quot;&gt;$$I_\text{ref}$$&lt;/font&gt;" style="text;html=1;align=center;verticalAlign=middle;whiteSpace=wrap;rounded=0;strokeWidth=2;" vertex="1" parent="1">
          <mxGeometry x="140" y="240" width="60" height="30" as="geometry" />
        </mxCell>
        <mxCell id="6nfeoU8okWl31p89dZ1C-22" value="&lt;font color=&quot;#ff0000&quot; style=&quot;font-size: 18px;&quot;&gt;$$I_\text{leak}$$&lt;/font&gt;" style="text;html=1;align=center;verticalAlign=middle;whiteSpace=wrap;rounded=0;" vertex="1" parent="1">
          <mxGeometry x="435" y="409.43" width="60" height="30" as="geometry" />
        </mxCell>
        <mxCell id="6nfeoU8okWl31p89dZ1C-24" value="&lt;font color=&quot;#0000ff&quot; style=&quot;font-size: 18px;&quot;&gt;$$I_\text{ref}-I_\text{leak}$$&lt;/font&gt;" style="text;html=1;align=center;verticalAlign=middle;whiteSpace=wrap;rounded=0;strokeWidth=2;" vertex="1" parent="1">
          <mxGeometry x="120" y="385" width="60" height="30" as="geometry" />
        </mxCell>
        <mxCell id="6nfeoU8okWl31p89dZ1C-25" value="&lt;font color=&quot;#006600&quot; style=&quot;font-size: 18px;&quot;&gt;$$I_\text{ref}-I_\text{leak}$$&lt;/font&gt;" style="text;html=1;align=center;verticalAlign=middle;whiteSpace=wrap;rounded=0;strokeWidth=2;" vertex="1" parent="1">
          <mxGeometry x="380" y="300" width="60" height="30" as="geometry" />
        </mxCell>
        <mxCell id="6nfeoU8okWl31p89dZ1C-44" value="" style="verticalLabelPosition=bottom;shadow=0;dashed=0;align=center;html=1;verticalAlign=top;shape=mxgraph.electrical.transistors.nmos;pointerEvents=1;strokeWidth=2;" vertex="1" parent="1">
          <mxGeometry x="739" y="349.43" width="60" height="100" as="geometry" />
        </mxCell>
        <mxCell id="6nfeoU8okWl31p89dZ1C-45" value="" style="verticalLabelPosition=bottom;shadow=0;dashed=0;align=center;html=1;verticalAlign=top;shape=mxgraph.electrical.transistors.nmos;pointerEvents=1;flipH=1;strokeWidth=2;" vertex="1" parent="1">
          <mxGeometry x="639" y="349.43" width="60" height="100" as="geometry" />
        </mxCell>
        <mxCell id="6nfeoU8okWl31p89dZ1C-46" value="" style="endArrow=none;html=1;rounded=0;entryX=0;entryY=0.5;entryDx=0;entryDy=0;entryPerimeter=0;strokeWidth=2;" edge="1" parent="1" target="6nfeoU8okWl31p89dZ1C-44">
          <mxGeometry width="50" height="50" relative="1" as="geometry">
            <mxPoint x="689" y="399.43" as="sourcePoint" />
            <mxPoint x="739" y="349.43" as="targetPoint" />
          </mxGeometry>
        </mxCell>
        <mxCell id="6nfeoU8okWl31p89dZ1C-47" value="" style="endArrow=none;html=1;rounded=0;exitDx=0;exitDy=0;exitPerimeter=0;strokeWidth=2;" edge="1" parent="1" source="6nfeoU8okWl31p89dZ1C-62">
          <mxGeometry width="50" height="50" relative="1" as="geometry">
            <mxPoint x="639" y="349.43" as="sourcePoint" />
            <mxPoint x="639" y="309.43" as="targetPoint" />
          </mxGeometry>
        </mxCell>
        <mxCell id="6nfeoU8okWl31p89dZ1C-48" value="" style="pointerEvents=1;verticalLabelPosition=bottom;shadow=0;dashed=0;align=center;html=1;verticalAlign=top;shape=mxgraph.electrical.signal_sources.source;aspect=fixed;points=[[0.5,0,0],[1,0.5,0],[0.5,1,0],[0,0.5,0]];elSignalType=dc2;strokeWidth=2;" vertex="1" parent="1">
          <mxGeometry x="619" y="269.43" width="40" height="40" as="geometry" />
        </mxCell>
        <mxCell id="6nfeoU8okWl31p89dZ1C-49" value="" style="endArrow=none;html=1;rounded=0;strokeWidth=2;" edge="1" parent="1">
          <mxGeometry width="50" height="50" relative="1" as="geometry">
            <mxPoint x="639" y="269.43" as="sourcePoint" />
            <mxPoint x="639" y="209.43" as="targetPoint" />
          </mxGeometry>
        </mxCell>
        <mxCell id="6nfeoU8okWl31p89dZ1C-51" value="" style="endArrow=none;html=1;rounded=0;strokeWidth=2;" edge="1" parent="1">
          <mxGeometry width="50" height="50" relative="1" as="geometry">
            <mxPoint x="659" y="350" as="sourcePoint" />
            <mxPoint x="639" y="350" as="targetPoint" />
          </mxGeometry>
        </mxCell>
        <mxCell id="6nfeoU8okWl31p89dZ1C-52" value="" style="endArrow=none;html=1;rounded=0;strokeWidth=2;" edge="1" parent="1">
          <mxGeometry width="50" height="50" relative="1" as="geometry">
            <mxPoint x="799" y="352.43" as="sourcePoint" />
            <mxPoint x="799" y="292.43" as="targetPoint" />
          </mxGeometry>
        </mxCell>
        <mxCell id="6nfeoU8okWl31p89dZ1C-53" value="" style="endArrow=none;html=1;rounded=0;strokeWidth=3;" edge="1" parent="1">
          <mxGeometry width="50" height="50" relative="1" as="geometry">
            <mxPoint x="629" y="449.43" as="sourcePoint" />
            <mxPoint x="889" y="449.43" as="targetPoint" />
          </mxGeometry>
        </mxCell>
        <mxCell id="6nfeoU8okWl31p89dZ1C-54" value="" style="endArrow=none;html=1;rounded=0;strokeWidth=2;" edge="1" parent="1">
          <mxGeometry width="50" height="50" relative="1" as="geometry">
            <mxPoint x="799" y="449.43" as="sourcePoint" />
            <mxPoint x="799" y="429.43" as="targetPoint" />
          </mxGeometry>
        </mxCell>
        <mxCell id="6nfeoU8okWl31p89dZ1C-55" value="" style="endArrow=none;html=1;rounded=0;strokeWidth=2;" edge="1" parent="1">
          <mxGeometry width="50" height="50" relative="1" as="geometry">
            <mxPoint x="639" y="449.43" as="sourcePoint" />
            <mxPoint x="639" y="429.43" as="targetPoint" />
          </mxGeometry>
        </mxCell>
        <mxCell id="6nfeoU8okWl31p89dZ1C-56" value="" style="endArrow=none;html=1;rounded=0;strokeWidth=2;" edge="1" parent="1">
          <mxGeometry width="50" height="50" relative="1" as="geometry">
            <mxPoint x="769" y="399.43" as="sourcePoint" />
            <mxPoint x="859" y="399.43" as="targetPoint" />
          </mxGeometry>
        </mxCell>
        <mxCell id="6nfeoU8okWl31p89dZ1C-57" value="" style="pointerEvents=1;verticalLabelPosition=bottom;shadow=0;dashed=0;align=center;html=1;verticalAlign=top;shape=mxgraph.electrical.signal_sources.source;aspect=fixed;points=[[0.5,0,0],[1,0.5,0],[0.5,1,0],[0,0.5,0]];elSignalType=dc2;strokeWidth=2;" vertex="1" parent="1">
          <mxGeometry x="844" y="409.43" width="30" height="30" as="geometry" />
        </mxCell>
        <mxCell id="6nfeoU8okWl31p89dZ1C-58" value="" style="endArrow=none;html=1;rounded=0;strokeWidth=2;" edge="1" parent="1">
          <mxGeometry width="50" height="50" relative="1" as="geometry">
            <mxPoint x="859" y="449.43" as="sourcePoint" />
            <mxPoint x="859" y="439.43" as="targetPoint" />
          </mxGeometry>
        </mxCell>
        <mxCell id="6nfeoU8okWl31p89dZ1C-59" value="" style="endArrow=none;html=1;rounded=0;strokeWidth=2;" edge="1" parent="1">
          <mxGeometry width="50" height="50" relative="1" as="geometry">
            <mxPoint x="858.89" y="409.43" as="sourcePoint" />
            <mxPoint x="858.89" y="399.43" as="targetPoint" />
          </mxGeometry>
        </mxCell>
        <mxCell id="6nfeoU8okWl31p89dZ1C-60" value="" style="shape=waypoint;sketch=0;fillStyle=solid;size=6;pointerEvents=1;points=[];fillColor=none;resizable=0;rotatable=0;perimeter=centerPerimeter;snapToPoint=1;strokeWidth=2;" vertex="1" parent="1">
          <mxGeometry x="709" y="389.43" width="20" height="20" as="geometry" />
        </mxCell>
        <mxCell id="6nfeoU8okWl31p89dZ1C-61" value="" style="endArrow=none;html=1;rounded=0;exitX=0.999;exitY=0.016;exitDx=0;exitDy=0;exitPerimeter=0;strokeWidth=2;" edge="1" parent="1" source="6nfeoU8okWl31p89dZ1C-45" target="6nfeoU8okWl31p89dZ1C-62">
          <mxGeometry width="50" height="50" relative="1" as="geometry">
            <mxPoint x="639" y="353.43" as="sourcePoint" />
            <mxPoint x="639" y="309.43" as="targetPoint" />
          </mxGeometry>
        </mxCell>
        <mxCell id="6nfeoU8okWl31p89dZ1C-62" value="" style="shape=waypoint;sketch=0;fillStyle=solid;size=6;pointerEvents=1;points=[];fillColor=none;resizable=0;rotatable=0;perimeter=centerPerimeter;snapToPoint=1;strokeWidth=2;" vertex="1" parent="1">
          <mxGeometry x="629" y="339.43" width="20" height="20" as="geometry" />
        </mxCell>
        <mxCell id="6nfeoU8okWl31p89dZ1C-63" value="&lt;font style=&quot;font-size: 18px;&quot;&gt;$$I_\text{ref}$$&lt;/font&gt;" style="text;html=1;align=center;verticalAlign=middle;whiteSpace=wrap;rounded=0;strokeWidth=2;" vertex="1" parent="1">
          <mxGeometry x="579" y="239.43" width="60" height="30" as="geometry" />
        </mxCell>
        <mxCell id="6nfeoU8okWl31p89dZ1C-64" value="&lt;font color=&quot;#ff0000&quot; style=&quot;font-size: 18px;&quot;&gt;$$I_\text{leak}$$&lt;/font&gt;" style="text;html=1;align=center;verticalAlign=middle;whiteSpace=wrap;rounded=0;" vertex="1" parent="1">
          <mxGeometry x="874" y="410" width="60" height="30" as="geometry" />
        </mxCell>
        <mxCell id="6nfeoU8okWl31p89dZ1C-65" value="&lt;font color=&quot;#0000ff&quot; style=&quot;font-size: 18px;&quot;&gt;$$I_\text{ref}$$&lt;/font&gt;" style="text;html=1;align=center;verticalAlign=middle;whiteSpace=wrap;rounded=0;strokeWidth=2;" vertex="1" parent="1">
          <mxGeometry x="579" y="384.43" width="60" height="30" as="geometry" />
        </mxCell>
        <mxCell id="6nfeoU8okWl31p89dZ1C-66" value="&lt;font color=&quot;#006600&quot; style=&quot;font-size: 18px;&quot;&gt;$$I_\text{ref}$$&lt;/font&gt;" style="text;html=1;align=center;verticalAlign=middle;whiteSpace=wrap;rounded=0;strokeWidth=2;" vertex="1" parent="1">
          <mxGeometry x="790" y="300" width="60" height="30" as="geometry" />
        </mxCell>
        <mxCell id="6nfeoU8okWl31p89dZ1C-67" value="" style="verticalLabelPosition=bottom;shadow=0;dashed=0;align=center;html=1;verticalAlign=top;shape=mxgraph.electrical.transistors.nmos;pointerEvents=1;flipH=0;strokeWidth=2;" vertex="1" parent="1">
          <mxGeometry x="659" y="300" width="60" height="100" as="geometry" />
        </mxCell>
        <mxCell id="6nfeoU8okWl31p89dZ1C-69" value="" style="pointerEvents=1;verticalLabelPosition=bottom;shadow=0;dashed=0;align=center;html=1;verticalAlign=top;shape=mxgraph.electrical.signal_sources.source;aspect=fixed;points=[[0.5,0,0],[1,0.5,0],[0.5,1,0],[0,0.5,0]];elSignalType=dc2;strokeWidth=2;" vertex="1" parent="1">
          <mxGeometry x="704" y="410" width="30" height="30" as="geometry" />
        </mxCell>
        <mxCell id="6nfeoU8okWl31p89dZ1C-70" value="" style="endArrow=none;html=1;rounded=0;strokeWidth=2;" edge="1" parent="1">
          <mxGeometry width="50" height="50" relative="1" as="geometry">
            <mxPoint x="719" y="450" as="sourcePoint" />
            <mxPoint x="719" y="440" as="targetPoint" />
          </mxGeometry>
        </mxCell>
        <mxCell id="6nfeoU8okWl31p89dZ1C-71" value="" style="endArrow=none;html=1;rounded=0;strokeWidth=2;" edge="1" parent="1">
          <mxGeometry width="50" height="50" relative="1" as="geometry">
            <mxPoint x="718.89" y="410" as="sourcePoint" />
            <mxPoint x="718.89" y="400" as="targetPoint" />
          </mxGeometry>
        </mxCell>
        <mxCell id="6nfeoU8okWl31p89dZ1C-72" value="&lt;font color=&quot;#ff00ff&quot; style=&quot;font-size: 18px;&quot;&gt;$$I_\text{sf}$$&lt;/font&gt;" style="text;html=1;align=center;verticalAlign=middle;whiteSpace=wrap;rounded=0;" vertex="1" parent="1">
          <mxGeometry x="719" y="414.43" width="60" height="30" as="geometry" />
        </mxCell>
        <mxCell id="6nfeoU8okWl31p89dZ1C-73" value="" style="endArrow=none;html=1;rounded=0;strokeWidth=2;" edge="1" parent="1">
          <mxGeometry width="50" height="50" relative="1" as="geometry">
            <mxPoint x="719" y="309.43" as="sourcePoint" />
            <mxPoint x="719" y="249.43" as="targetPoint" />
          </mxGeometry>
        </mxCell>
        <mxCell id="6nfeoU8okWl31p89dZ1C-74" value="&lt;font color=&quot;#cc00cc&quot; style=&quot;font-size: 14px;&quot;&gt;$$I_\text{leak}+I_\text{sf}$$&lt;/font&gt;" style="text;html=1;align=center;verticalAlign=middle;whiteSpace=wrap;rounded=0;strokeWidth=2;" vertex="1" parent="1">
          <mxGeometry x="729" y="260" width="60" height="30" as="geometry" />
        </mxCell>
        <mxCell id="6nfeoU8okWl31p89dZ1C-76" value="&lt;font style=&quot;font-size: 15px;&quot;&gt;&lt;b&gt;(a)&lt;/b&gt;&lt;/font&gt;" style="text;html=1;align=center;verticalAlign=middle;whiteSpace=wrap;rounded=0;" vertex="1" parent="1">
          <mxGeometry x="270" y="460" width="60" height="30" as="geometry" />
        </mxCell>
        <mxCell id="6nfeoU8okWl31p89dZ1C-77" value="&lt;font style=&quot;font-size: 15px;&quot;&gt;&lt;b&gt;(b)&lt;/b&gt;&lt;/font&gt;" style="text;html=1;align=center;verticalAlign=middle;whiteSpace=wrap;rounded=0;" vertex="1" parent="1">
          <mxGeometry x="704" y="460" width="60" height="30" as="geometry" />
        </mxCell>
      </root>
    </mxGraphModel>
  </diagram>
</mxfile>
